<mxfile host="65bd71144e">
    <diagram id="DDnHAo6PvC0mLke_PGsq" name="Page-1">
        <mxGraphModel dx="1786" dy="779" grid="1" gridSize="10" guides="1" tooltips="1" connect="1" arrows="1" fold="1" page="0" pageScale="1" pageWidth="850" pageHeight="1100" math="0" shadow="0">
            <root>
                <mxCell id="0"/>
                <mxCell id="1" parent="0"/>
                <mxCell id="117" value="&lt;span style=&quot;&quot;&gt;estoque&lt;/span&gt;" style="rounded=1;whiteSpace=wrap;html=1;fillColor=#eeeeee;opacity=70;strokeColor=#36393d;arcSize=6;align=center;verticalAlign=bottom;horizontal=1;labelPosition=center;verticalLabelPosition=top;fontColor=default;" vertex="1" parent="1">
                    <mxGeometry x="-110" y="710" width="180" height="320" as="geometry"/>
                </mxCell>
                <mxCell id="114" value="MVP" style="rounded=1;whiteSpace=wrap;html=1;opacity=70;arcSize=6;align=center;verticalAlign=bottom;horizontal=1;labelPosition=center;verticalLabelPosition=top;fillColor=#f5f5f5;strokeColor=#666666;fontColor=#333333;fontSize=24;fontStyle=1" vertex="1" parent="1">
                    <mxGeometry x="-110" y="270" width="630" height="370" as="geometry"/>
                </mxCell>
                <mxCell id="93" value="materia prima" style="rounded=1;whiteSpace=wrap;html=1;fillColor=#ffe6cc;opacity=50;strokeColor=#d79b00;arcSize=6;align=center;verticalAlign=bottom;horizontal=1;labelPosition=center;verticalLabelPosition=top;" vertex="1" parent="1">
                    <mxGeometry x="-70" y="300" width="180" height="320" as="geometry"/>
                </mxCell>
                <mxCell id="91" value="" style="edgeStyle=none;html=1;" edge="1" parent="1" source="78" target="90">
                    <mxGeometry relative="1" as="geometry"/>
                </mxCell>
                <mxCell id="78" value="produtos" style="whiteSpace=wrap;html=1;fillColor=#dae8fc;strokeColor=#6c8ebf;" parent="1" vertex="1">
                    <mxGeometry x="160" y="490" width="120" height="60" as="geometry"/>
                </mxCell>
                <mxCell id="92" style="edgeStyle=none;html=1;" edge="1" parent="1" source="82" target="78">
                    <mxGeometry relative="1" as="geometry"/>
                </mxCell>
                <mxCell id="82" value="receitas" style="whiteSpace=wrap;html=1;fillColor=#dae8fc;strokeColor=#6c8ebf;" parent="1" vertex="1">
                    <mxGeometry x="160" y="320" width="120" height="60" as="geometry"/>
                </mxCell>
                <mxCell id="87" style="edgeStyle=none;html=1;" edge="1" parent="1" source="83" target="78">
                    <mxGeometry relative="1" as="geometry"/>
                </mxCell>
                <mxCell id="95" style="edgeStyle=elbowEdgeStyle;html=1;elbow=vertical;" edge="1" parent="1" source="83" target="90">
                    <mxGeometry relative="1" as="geometry">
                        <Array as="points">
                            <mxPoint x="210" y="570"/>
                        </Array>
                    </mxGeometry>
                </mxCell>
                <mxCell id="83" value="embalagens /&amp;nbsp;&lt;span style=&quot;&quot;&gt;enfeites&lt;/span&gt;" style="whiteSpace=wrap;html=1;fillColor=#ffe6cc;strokeColor=#d79b00;fontColor=default;" vertex="1" parent="1">
                    <mxGeometry x="-40" y="540" width="120" height="60" as="geometry"/>
                </mxCell>
                <mxCell id="89" style="edgeStyle=none;html=1;" edge="1" parent="1" source="84" target="82">
                    <mxGeometry relative="1" as="geometry"/>
                </mxCell>
                <mxCell id="97" style="edgeStyle=elbowEdgeStyle;html=1;elbow=vertical;" edge="1" parent="1" source="84" target="90">
                    <mxGeometry relative="1" as="geometry">
                        <Array as="points">
                            <mxPoint x="220" y="420"/>
                        </Array>
                    </mxGeometry>
                </mxCell>
                <mxCell id="84" value="ingredientes" style="whiteSpace=wrap;html=1;fillColor=#ffe6cc;strokeColor=#d79b00;" vertex="1" parent="1">
                    <mxGeometry x="-40" y="320" width="120" height="60" as="geometry"/>
                </mxCell>
                <mxCell id="88" style="edgeStyle=none;html=1;" edge="1" parent="1" source="85" target="78">
                    <mxGeometry relative="1" as="geometry"/>
                </mxCell>
                <mxCell id="96" style="edgeStyle=elbowEdgeStyle;html=1;elbow=vertical;" edge="1" parent="1" source="85" target="90">
                    <mxGeometry relative="1" as="geometry">
                        <Array as="points">
                            <mxPoint x="220" y="470"/>
                        </Array>
                    </mxGeometry>
                </mxCell>
                <mxCell id="85" value="complementos" style="whiteSpace=wrap;html=1;fillColor=#ffe6cc;strokeColor=#d79b00;" vertex="1" parent="1">
                    <mxGeometry x="-40" y="440" width="120" height="60" as="geometry"/>
                </mxCell>
                <mxCell id="90" value="kits" style="whiteSpace=wrap;html=1;fillColor=#d5e8d4;strokeColor=#82b366;" vertex="1" parent="1">
                    <mxGeometry x="360" y="490" width="120" height="60" as="geometry"/>
                </mxCell>
                <mxCell id="101" value="produtos" style="whiteSpace=wrap;html=1;fillColor=#dae8fc;strokeColor=#6c8ebf;" vertex="1" parent="1">
                    <mxGeometry x="-80" y="950" width="120" height="60" as="geometry"/>
                </mxCell>
                <mxCell id="103" value="receitas" style="whiteSpace=wrap;html=1;fillColor=#dae8fc;strokeColor=#6c8ebf;" vertex="1" parent="1">
                    <mxGeometry x="-80" y="840" width="120" height="60" as="geometry"/>
                </mxCell>
                <mxCell id="109" value="materia prima" style="whiteSpace=wrap;html=1;fillColor=#ffe6cc;strokeColor=#d79b00;" vertex="1" parent="1">
                    <mxGeometry x="-80" y="730" width="120" height="60" as="geometry"/>
                </mxCell>
            </root>
        </mxGraphModel>
    </diagram>
</mxfile>